<svg xmlns="http://www.w3.org/2000/svg" xmlns:xlink="http://www.w3.org/1999/xlink" width="210" height="116" viewBox="0 0 210 116">
    <defs>
        <path id="a" d="M2.706.72C.385 1.829-.584 4.578.544 6.86a36.174 36.174 0 0 0 7.267 9.953c11.212.218 20.645 3.018 29.162 5.263l-.908-.24c.052-.897.151-1.802.298-2.702-6.784-.556-13.194-2.5-18.103-5.76a27.295 27.295 0 0 1-5.364-4.665 26.916 26.916 0 0 1-3.948-5.862C8.14 1.21 6.475.257 4.742.257c-.684 0-1.38.15-2.036.463zm34.729 21.478z"/>
        <path id="c" d="M2.706.72C.385 1.829-.584 4.578.544 6.86a36.174 36.174 0 0 0 7.267 9.953c11.212.218 20.645 3.018 29.162 5.263l-.908-.24c.052-.897.151-1.802.298-2.702-6.784-.556-13.194-2.5-18.103-5.76a27.295 27.295 0 0 1-5.364-4.665 26.916 26.916 0 0 1-3.948-5.862C8.14 1.21 6.475.257 4.742.257c-.684 0-1.38.15-2.036.463zm34.729 21.478z"/>
        <path id="e" d="M2.706.72C.385 1.829-.584 4.578.544 6.86a36.174 36.174 0 0 0 7.267 9.953c11.212.218 20.645 3.018 29.162 5.263l-.908-.24c.052-.897.151-1.802.298-2.702-6.784-.556-13.194-2.5-18.103-5.76a27.295 27.295 0 0 1-5.364-4.665 26.916 26.916 0 0 1-3.948-5.862C8.14 1.21 6.475.257 4.742.257c-.684 0-1.38.15-2.036.463zm34.729 21.478z"/>
        <path id="g" d="M2.706.72C.385 1.829-.584 4.578.544 6.86a36.174 36.174 0 0 0 7.267 9.953c11.212.218 20.645 3.018 29.162 5.263l-.908-.24c.052-.897.151-1.802.298-2.702-6.784-.556-13.194-2.5-18.103-5.76a27.295 27.295 0 0 1-5.364-4.665 26.916 26.916 0 0 1-3.948-5.862C8.14 1.21 6.475.257 4.742.257c-.684 0-1.38.15-2.036.463zm34.729 21.478z"/>
        <path id="i" d="M.154 5.759c.547 2.24 3.282 6.474 4.224 8.799 4.31 10.643 18.89 7.503 20.028-2.819.346-3.133-1.4-8.103-2.703-8.944C19.088 1.107 14.626.208 10.43.209 4.57.209-.773 1.96.154 5.759"/>
        <path id="k" d="M.11 4.664c-.295 2.69 1.233 5.382 3.42 4.444-.045-.503-.355-1.53-.168-2.373.11 3.108 1.512 4.005 2.784 3.6 1.638-.524.74-1.881.877-3.238.217 1.937 1.568 3.845 3.448 2.611.618-.639.99-3.197 1.07-4.747C11.693 2.07 9.597.48 7.095.132 6.592.062 6.119.03 5.676.03 1.972.029.366 2.347.11 4.664"/>
        <path id="m" d="M.11 4.664c-.295 2.69 1.233 5.382 3.42 4.444-.045-.503-.355-1.53-.168-2.373.11 3.108 1.512 4.005 2.784 3.6 1.638-.524.74-1.881.877-3.238.217 1.937 1.568 3.845 3.448 2.611.618-.639.99-3.197 1.07-4.747C11.693 2.07 9.597.48 7.095.132 6.592.062 6.119.03 5.676.03 1.972.029.366 2.347.11 4.664z"/>
        <path id="o" d="M.11 4.664c-.295 2.69 1.233 5.382 3.42 4.444-.045-.503-.355-1.53-.168-2.373.11 3.108 1.512 4.005 2.784 3.6 1.638-.524.74-1.881.877-3.238.217 1.937 1.568 3.845 3.448 2.611.618-.639.99-3.197 1.07-4.747C11.693 2.07 9.597.48 7.095.132 6.592.062 6.119.03 5.676.03 1.972.029.366 2.347.11 4.664z"/>
        <path id="q" d="M.454 6.498c.64 2.926 2.715 3.744 4.766 3.874 1.358.087 4.08.318 4.401-1.35.255-1.316-.833-1.938-2.27-2.132.346-.03.692.02 1.02.069.81.122 1.511.244 1.861-.832.381-1.172-.388-2.487-3.138-2.637.63-.077 1.375.03 1.761.037C10.547 3.56 9.978.601 6.958.212a7.745 7.745 0 0 0-.99-.065C2.074.147-.25 3.277.454 6.497"/>
        <path id="s" d="M.454 6.498c.64 2.926 2.715 3.744 4.766 3.874 1.358.087 4.08.318 4.401-1.35.255-1.316-.833-1.938-2.27-2.132.346-.03.692.02 1.02.069.81.122 1.511.244 1.861-.832.381-1.172-.388-2.487-3.138-2.637.63-.077 1.375.03 1.761.037C10.547 3.56 9.978.601 6.958.212a7.745 7.745 0 0 0-.99-.065C2.074.147-.25 3.277.454 6.497"/>
        <path id="u" d="M.454 6.498c.64 2.926 2.715 3.744 4.766 3.874 1.358.087 4.08.318 4.401-1.35.255-1.316-.833-1.938-2.27-2.132.346-.03.692.02 1.02.069.81.122 1.511.244 1.861-.832.381-1.172-.388-2.487-3.138-2.637.63-.077 1.375.03 1.761.037C10.547 3.56 9.978.601 6.958.212a7.745 7.745 0 0 0-.99-.065C2.074.147-.25 3.277.454 6.497"/>
        <path id="w" d="M.064.198h16.162v19.215H.064z"/>
        <path id="y" d="M34.537 2.449C19.54 5.999-4.04 14.596 1 33.799c3.386 12.902 5.532 25.257 13.692 32.85 5.066 4.713 14.182 7.215 23.295 7.927 3.58.28 6.153.937 9.84.458.84-.065 2.063-.266 3.41-.576 1.348-.31 2.537-.664 3.32-.972 3.525-1.18 5.547-2.894 8.642-4.71 7.876-4.62 14.967-10.85 17.444-17.298 3.99-10.388.477-22.428-2.16-35.502C75.977 3.568 64.914.117 53.325.117c-6.585 0-13.338 1.114-18.789 2.332z"/>
        <path id="A" d="M34.537 2.449C19.54 5.999-4.04 14.596 1 33.799c3.386 12.902 5.532 25.257 13.692 32.85 5.066 4.713 14.182 7.215 23.295 7.927 3.58.28 6.153.937 9.84.458.84-.065 2.063-.266 3.41-.576 1.348-.31 2.537-.664 3.32-.972 3.525-1.18 5.547-2.894 8.642-4.71 7.876-4.62 14.967-10.85 17.444-17.298 3.99-10.388.477-22.428-2.16-35.502C75.977 3.568 64.914.117 53.325.117c-6.585 0-13.338 1.114-18.789 2.332z"/>
        <path id="C" d="M34.537 2.449C19.54 5.999-4.04 14.596 1 33.799c3.386 12.902 5.532 25.257 13.692 32.85 5.066 4.713 14.182 7.215 23.295 7.927 3.58.28 6.153.937 9.84.458.84-.065 2.063-.266 3.41-.576 1.348-.31 2.537-.664 3.32-.972 3.525-1.18 5.547-2.894 8.642-4.71 7.876-4.62 14.967-10.85 17.444-17.298 3.99-10.388.477-22.428-2.16-35.502C75.977 3.568 64.914.117 53.325.117c-6.585 0-13.338 1.114-18.789 2.332z"/>
        <path id="E" d="M34.537 2.449C19.54 5.999-4.04 14.596 1 33.799c3.386 12.902 5.532 25.257 13.692 32.85 5.066 4.713 14.182 7.215 23.295 7.927 3.58.28 6.153.937 9.84.458.84-.065 2.063-.266 3.41-.576 1.348-.31 2.537-.664 3.32-.972 3.525-1.18 5.547-2.894 8.642-4.71 7.876-4.62 14.967-10.85 17.444-17.298 3.99-10.388.477-22.428-2.16-35.502C75.977 3.568 64.914.117 53.325.117c-6.585 0-13.338 1.114-18.789 2.332z"/>
        <path id="G" d="M34.537 2.449C19.54 5.999-4.04 14.596 1 33.799c3.386 12.902 5.532 25.257 13.692 32.85 5.066 4.713 14.182 7.215 23.295 7.927 3.58.28 6.153.937 9.84.458.84-.065 2.063-.266 3.41-.576 1.348-.31 2.537-.664 3.32-.972 3.525-1.18 5.547-2.894 8.642-4.71 7.876-4.62 14.967-10.85 17.444-17.298 3.99-10.388.477-22.428-2.16-35.502C75.977 3.568 64.914.117 53.325.117c-6.585 0-13.338 1.114-18.789 2.332"/>
        <path id="I" d="M34.537 2.449C19.54 5.999-4.04 14.596 1 33.799c3.386 12.902 5.532 25.257 13.692 32.85 5.066 4.713 14.182 7.215 23.295 7.927 3.58.28 6.153.937 9.84.458.84-.065 2.063-.266 3.41-.576 1.348-.31 2.537-.664 3.32-.972 3.525-1.18 5.547-2.894 8.642-4.71 7.876-4.62 14.967-10.85 17.444-17.298 3.99-10.388.477-22.428-2.16-35.502C75.977 3.568 64.914.117 53.325.117c-6.585 0-13.338 1.114-18.789 2.332z"/>
        <path id="K" d="M34.537 2.449C19.54 5.999-4.04 14.596 1 33.799c3.386 12.902 5.532 25.257 13.692 32.85 5.066 4.713 14.182 7.215 23.295 7.927 3.58.28 6.153.937 9.84.458.84-.065 2.063-.266 3.41-.576 1.348-.31 2.537-.664 3.32-.972 3.525-1.18 5.547-2.894 8.642-4.71 7.876-4.62 14.967-10.85 17.444-17.298 3.99-10.388.477-22.428-2.16-35.502C75.977 3.568 64.914.117 53.325.117c-6.585 0-13.338 1.114-18.789 2.332z"/>
        <path id="M" d="M34.537 2.449C19.54 5.999-4.04 14.596 1 33.799c3.386 12.902 5.532 25.257 13.692 32.85 5.066 4.713 14.182 7.215 23.295 7.927 3.58.28 6.153.937 9.84.458.84-.065 2.063-.266 3.41-.576 1.348-.31 2.537-.664 3.32-.972 3.525-1.18 5.547-2.894 8.642-4.71 7.876-4.62 14.967-10.85 17.444-17.298 3.99-10.388.477-22.428-2.16-35.502C75.977 3.568 64.914.117 53.325.117c-6.585 0-13.338 1.114-18.789 2.332z"/>
        <path id="O" d="M34.537 2.449C19.54 5.999-4.04 14.596 1 33.799c3.386 12.902 5.532 25.257 13.692 32.85 5.066 4.713 14.182 7.215 23.295 7.927 3.58.28 6.153.937 9.84.458.84-.065 2.063-.266 3.41-.576 1.348-.31 2.537-.664 3.32-.972 3.525-1.18 5.547-2.894 8.642-4.71 7.876-4.62 14.967-10.85 17.444-17.298 3.99-10.388.477-22.428-2.16-35.502C75.977 3.568 64.914.117 53.325.117c-6.585 0-13.338 1.114-18.789 2.332z"/>
        <path id="Q" d="M34.537 2.449C19.54 5.999-4.04 14.596 1 33.799c3.386 12.902 5.532 25.257 13.692 32.85 5.066 4.713 14.182 7.215 23.295 7.927 3.58.28 6.153.937 9.84.458.84-.065 2.063-.266 3.41-.576 1.348-.31 2.537-.664 3.32-.972 3.525-1.18 5.547-2.894 8.642-4.71 7.876-4.62 14.967-10.85 17.444-17.298 3.99-10.388.477-22.428-2.16-35.502C75.977 3.568 64.914.117 53.325.117c-6.585 0-13.338 1.114-18.789 2.332z"/>
        <path id="S" d="M34.537 2.449C19.54 5.999-4.04 14.596 1 33.799c3.386 12.902 5.532 25.257 13.692 32.85 5.066 4.713 14.182 7.215 23.295 7.927 3.58.28 6.153.937 9.84.458.84-.065 2.063-.266 3.41-.576 1.348-.31 2.537-.664 3.32-.972 3.525-1.18 5.547-2.894 8.642-4.71 7.876-4.62 14.967-10.85 17.444-17.298 3.99-10.388.477-22.428-2.16-35.502C75.977 3.568 64.914.117 53.325.117c-6.585 0-13.338 1.114-18.789 2.332z"/>
        <path id="U" d="M34.537 2.449C19.54 5.999-4.04 14.596 1 33.799c3.386 12.902 5.532 25.257 13.692 32.85 5.066 4.713 14.182 7.215 23.295 7.927 3.58.28 6.153.937 9.84.458.84-.065 2.063-.266 3.41-.576 1.348-.31 2.537-.664 3.32-.972 3.525-1.18 5.547-2.894 8.642-4.71 7.876-4.62 14.967-10.85 17.444-17.298 3.99-10.388.477-22.428-2.16-35.502C75.977 3.568 64.914.117 53.325.117c-6.585 0-13.338 1.114-18.789 2.332z"/>
        <path id="W" d="M34.537 2.449C19.54 5.999-4.04 14.596 1 33.799c3.386 12.902 5.532 25.257 13.692 32.85 5.066 4.713 14.182 7.215 23.295 7.927 3.58.28 6.153.937 9.84.458.84-.065 2.063-.266 3.41-.576 1.348-.31 2.537-.664 3.32-.972 3.525-1.18 5.547-2.894 8.642-4.71 7.876-4.62 14.967-10.85 17.444-17.298 3.99-10.388.477-22.428-2.16-35.502C75.977 3.568 64.914.117 53.325.117c-6.585 0-13.338 1.114-18.789 2.332z"/>
        <path id="Y" d="M34.537 2.449C19.54 5.999-4.04 14.596 1 33.799c3.386 12.902 5.532 25.257 13.692 32.85 5.066 4.713 14.182 7.215 23.295 7.927 3.58.28 6.153.937 9.84.458.84-.065 2.063-.266 3.41-.576 1.348-.31 2.537-.664 3.32-.972 3.525-1.18 5.547-2.894 8.642-4.71 7.876-4.62 14.967-10.85 17.444-17.298 3.99-10.388.477-22.428-2.16-35.502C75.977 3.568 64.914.117 53.325.117c-6.585 0-13.338 1.114-18.789 2.332z"/>
    </defs>
    <g fill="none" fill-rule="evenodd">
        <path fill="#5ACAF4" d="M148.41 52.958c31.075-20.927 57.444 1.259 59.033 24.706.829 12.229-5.083 24.801-20.584 31.779-19.973 8.99-39.304-12.222-74.14-3.96-24.438 5.795-61.632 17.682-91.59 3.3C-14.713 91.576.646 50.408 25.87 31.67c17.354-12.89 39.975-14.155 60.05-6.924 29.664 10.685 36.757 45.54 62.49 28.21"/>
        <path fill="#FCB813" d="M159.98 108.982c-8.589-2.285-18.105-5.21-29.455-5.435a36.532 36.532 0 0 1-7.226-10.045 4.635 4.635 0 0 1 2.15-6.197 4.648 4.648 0 0 1 6.206 2.146 27.166 27.166 0 0 0 3.925 5.917 27.253 27.253 0 0 0 5.334 4.708c4.882 3.29 11.255 5.253 18 5.814a26.56 26.56 0 0 0-.296 2.727l1.361.365"/>
        <g transform="translate(122.697 86.124)">
            <mask id="b" fill="#fff">
                <use xlink:href="#a"/>
            </mask>
            <path fill="#061922" d="M-4.846 4.245L7.07-4.08l6.18 8.56-11.917 8.326z" mask="url(#b)"/>
        </g>
        <g transform="translate(122.697 86.124)">
            <mask id="d" fill="#fff">
                <use xlink:href="#c"/>
            </mask>
            <path fill="#061922" d="M7.63 17.118l7.112-12.13 4.825 5.405z" mask="url(#d)"/>
        </g>
        <g transform="translate(122.697 86.124)">
            <mask id="f" fill="#fff">
                <use xlink:href="#e"/>
            </mask>
            <path fill="#061922" d="M16.561 23.756l2.997-13.69 6.275 3.694z" mask="url(#f)"/>
        </g>
        <g transform="translate(122.697 86.124)">
            <mask id="h" fill="#fff">
                <use xlink:href="#g"/>
            </mask>
            <path fill="#061922" d="M25.151 28.734l1.139-13.958 6.715 2.848z" mask="url(#h)"/>
        </g>
        <path fill="#FFF100" d="M206.34 79.854c.042 11.58-5.966 23.16-20.38 29.757-8.922 4.083-17.715 1.954-27.857-.828.2-3.582 1.111-7.268 2.878-10.398 7.24-12.823 31.416-22.062 45.359-18.53"/>
        <path fill="#F4811F" d="M164.005 110.32c-1.597-.38-3.222-.807-4.884-1.26a2.9 2.9 0 0 1-.026-.382c0-1.526 1.22-2.763 2.722-2.763 1.503 0 2.722 1.237 2.722 2.763 0 .615-.198 1.183-.534 1.643M206.337 79.494a32.45 32.45 0 0 1-.327 5.117c-.268.09-.553.138-.85.138-1.503 0-2.722-1.237-2.722-2.763 0-1.526 1.22-2.763 2.722-2.763.422 0 .821.097 1.177.27"/>
        <path fill="#F9A51A" d="M186.745 87.112c-1.135 10.205-15.661 13.31-19.956 2.787-.938-2.3-3.664-6.485-4.209-8.7-1.585-6.444 15.226-6.93 21.472-2.93 1.298.831 3.037 5.745 2.693 8.843"/>
        <g transform="translate(162.809 75.506)">
            <mask id="j" fill="#fff">
                <use xlink:href="#i"/>
            </mask>
            <path fill="#F4811F" d="M3.605 11.703c8.633 4.247 25.071-.784 25.748-10.38.73-10.327-14.262-11.18-24.734-7.538-9.784 3.403-15.625 10.73-1.014 17.918" mask="url(#j)"/>
        </g>
        <path fill="#F4811F" d="M159.335 107.877c.223 1.758 1.613 3.49 3.545 2.37.635-.58 1.018-2.902 1.1-4.31.156-2.624-1.998-4.066-4.57-4.383-9.884-1.215-8.084 9.82-3.665 8.149-.048-.457-.366-1.39-.173-2.154.112 2.82 1.554 3.635 2.861 3.267 1.684-.475.763-1.707.902-2.94"/>
        <g>
            <g transform="translate(151.011 101.46)">
                <mask id="l" fill="#fff">
                    <use xlink:href="#k"/>
                </mask>
                <path fill="#FCB813" d="M6.898 6.26c.216 1.938 1.568 3.846 3.448 2.612.454-.298.523-2.603.992-4.428.574-2.237-1.169-4.702-4.368-5.148-9.613-1.339-7.862 10.817-3.564 8.976-.046-.503-.356-1.53-.17-2.373.11 3.108 1.513 4.005 2.784 3.6 1.638-.524.742-1.881.878-3.238" mask="url(#l)"/>
            </g>
            <g transform="translate(151.011 101.46)">
                <mask id="n" fill="#fff">
                    <use xlink:href="#m"/>
                </mask>
                <path fill="#061922" d="M4.023 11.13c-2.071-1.731-1.554-6.589.191-8.007-.694.991-1.04 2.927-.796 4.74.093.688.414 1.426.89 2.085l-.285 1.182z" mask="url(#n)"/>
            </g>
            <g transform="translate(151.011 101.46)">
                <mask id="p" fill="#fff">
                    <use xlink:href="#o"/>
                </mask>
                <path fill="#061922" d="M8.1 11.342c-1.828-2.015-2.515-5.86-.664-7.927-1.035 2.092-.472 5.582 1.153 7.192l-.49.735z" mask="url(#p)"/>
            </g>
        </g>
        <path fill="#F4811F" d="M206.841 77.746c1.528.2 2.683.842 2.413 2.2-.342 1.722-3.234 1.484-4.676 1.395-2.18-.136-4.383-.98-5.063-4-.81-3.597 2.148-7.084 6.91-6.487 3.208.401 3.812 3.455 2.015 3.42-.41-.007-1.2-.116-1.87-.037 2.92.155 3.738 1.512 3.333 2.722-.522 1.56-1.783.679-3.062.787"/>
        <g>
            <g transform="translate(199.382 70.787)">
                <mask id="r" fill="#fff">
                    <use xlink:href="#q"/>
                </mask>
                <path fill="#FCB813" d="M6.406 6.734c1.438.194 2.447.944 2.25 2.27-.3 2.01-3.044 1.436-4.401 1.35C2.203 10.222-.073 8.66-.32 5.678-.65 1.71 2.917-.964 7.2.516c2.162.746 1.934 3.015.689 2.992-.387-.007-1.131-.114-1.761-.037 2.749.15 3.52 1.465 3.138 2.637-.492 1.51-1.657.52-2.861.626" mask="url(#r)"/>
            </g>
            <g transform="translate(199.382 70.787)">
                <mask id="t" fill="#fff">
                    <use xlink:href="#s"/>
                </mask>
                <path fill="#061922" d="M4.127 3.789c1.12-.286 2.227-.371 3.175-.285 1.492.135 2.978.47 3.134 1.341.161-.683-2.348-3.113-6.309-1.056" mask="url(#t)"/>
            </g>
            <g transform="translate(199.382 70.787)">
                <mask id="v" fill="#fff">
                    <use xlink:href="#u"/>
                </mask>
                <path fill="#061922" d="M4.084 7.215c1.87-.927 4.95-.35 6.347 1.183-.358-1.767-4.16-3.161-6.347-1.183" mask="url(#v)"/>
            </g>
        </g>
        <g>
            <g transform="translate(191.377)">
                <mask id="x" fill="#fff">
                    <use xlink:href="#w"/>
                </mask>
                <path fill="#061922" d="M.6 15S-.818 7.437.96 4.87C2.735 2.305 11.042-.594 12.711.399c1.67.993 5.67 9.862 2.034 13.655-3.635 3.793-9.45 5.36-9.45 5.36S.49 15.455.6 14.999" mask="url(#x)"/>
            </g>
            <path fill="#FEFEFE" d="M194.584 16.493s-1.68-5.555-.105-8.681c.52-1.03 3.545-2.051 5.25-2.544 2.028-.588 2.317.325 3.043 2.314.709 1.942 1.314 4.896-.605 6.392-2.821 2.2-6.598 3.241-6.598 3.241s-.78-.773-.985-.722"/>
            <path fill="#061922" d="M127.62 29.875s-2.04-7.417-4.763-8.945c-2.721-1.527-11.457-.486-12.523 1.139-1.064 1.624-.771 11.351 4.158 13.164 4.929 1.814 10.84.67 10.84.67s2.586-5.667 2.287-6.028"/>
            <path fill="#FEFEFE" d="M125.93 32.362s-.925-5.73-3.71-7.848c-.917-.698-4.084-.288-5.832.017-2.081.363-1.94 1.31-1.721 3.416.214 2.057.964 4.976 3.345 5.479 3.5.74 7.35.017 7.35.017s.362-1.037.568-1.081"/>
            <path fill="#FCB813" d="M177.55 84.092c3.528-1.187 5.553-2.911 8.65-4.737 7.885-4.648 14.985-10.915 17.464-17.4 3.994-10.45.478-22.561-2.163-35.713-3.931-19.574-28.935-16.987-43.993-13.607-15.014 3.571-38.619 12.219-33.573 31.536 3.39 12.978 5.537 25.405 13.707 33.043 5.07 4.742 14.197 7.258 23.32 7.975 3.584.281 6.16.942 9.85.46.841-.066 2.066-.268 3.415-.58 1.349-.311 2.539-.667 3.323-.977"/>
        </g>
        <g>
            <g transform="translate(122.697 10.618)">
                <mask id="z" fill="#fff">
                    <use xlink:href="#y"/>
                </mask>
                <path fill="#061922" d="M14.136 27.258L.806 37.695l-1.334-8.29z" mask="url(#z)"/>
            </g>
            <g transform="translate(122.697 10.618)">
                <mask id="B" fill="#fff">
                    <use xlink:href="#A"/>
                </mask>
                <path fill="#061922" d="M11.972 40.834L4.066 50.75l-2.828-8.15z" mask="url(#B)"/>
            </g>
            <g transform="translate(122.697 10.618)">
                <mask id="D" fill="#fff">
                    <use xlink:href="#C"/>
                </mask>
                <path fill="#061922" d="M15.307 52.952l-5.458 9.36-4.164-6.07z" mask="url(#D)"/>
            </g>
            <g transform="translate(122.697 10.618)">
                <mask id="F" fill="#fff">
                    <use xlink:href="#E"/>
                </mask>
                <path fill="#061922" d="M20.771 62.074l-2.353 8.147-5.502-3.5z" mask="url(#F)"/>
            </g>
            <g transform="translate(122.697 10.618)">
                <mask id="H" fill="#fff">
                    <use xlink:href="#G"/>
                </mask>
                <path fill="#FFD55C" d="M47.65 58.986c-7.177.561-12.253 4.213-11.338 8.158.914 3.944 7.474 6.687 14.65 6.126 6.697-2.63 11.384-7.96 10.47-11.904-.915-3.945-7.086-5.01-13.782-2.38" mask="url(#H)"/>
            </g>
            <g transform="translate(122.697 10.618)">
                <mask id="J" fill="#fff">
                    <use xlink:href="#I"/>
                </mask>
                <path fill="#061922" d="M16.332 20.427L4.964 15.356l6.002-5.25z" mask="url(#J)"/>
            </g>
            <g transform="translate(122.697 10.618)">
                <mask id="L" fill="#fff">
                    <use xlink:href="#K"/>
                </mask>
                <path fill="#061922" d="M27.925 19.992L14.956 7.778l7.892-3.713z" mask="url(#L)"/>
            </g>
            <g transform="translate(122.697 10.618)">
                <mask id="N" fill="#fff">
                    <use xlink:href="#M"/>
                </mask>
                <path fill="#061922" d="M39.639 24.139l-.116-.192-.02.223-.094-.413L26.125 1.721l7.753-2.114 7.899-1.487-2.235 25.607z" mask="url(#N)"/>
            </g>
            <g transform="translate(122.697 10.618)">
                <mask id="P" fill="#fff">
                    <use xlink:href="#O"/>
                </mask>
                <path fill="#061922" d="M63.797 15.834l16.575 3.559-2.452-8.035z" mask="url(#P)"/>
            </g>
            <g transform="translate(122.697 10.618)">
                <mask id="R" fill="#fff">
                    <use xlink:href="#Q"/>
                </mask>
                <path fill="#061922" d="M71.72 27.09l11.472 5.46-1.047-8.56z" mask="url(#R)"/>
            </g>
            <g transform="translate(122.697 10.618)">
                <mask id="T" fill="#fff">
                    <use xlink:href="#S"/>
                </mask>
                <path fill="#061922" d="M74.058 39.437l9.027 6.028 1.069-7.275z" mask="url(#T)"/>
            </g>
            <g transform="translate(122.697 10.618)">
                <mask id="V" fill="#fff">
                    <use xlink:href="#U"/>
                </mask>
                <path fill="#061922" d="M73.164 50.021l5.703 6.295 3.404-5.549z" mask="url(#V)"/>
            </g>
            <g transform="translate(122.697 10.618)">
                <mask id="X" fill="#fff">
                    <use xlink:href="#W"/>
                </mask>
                <path fill="#061922" d="M58.815 10.654l7.983-9.522-7.705-2.096z" mask="url(#X)"/>
            </g>
            <g transform="translate(122.697 10.618)">
                <mask id="Z" fill="#fff">
                    <use xlink:href="#Y"/>
                </mask>
                <path fill="#061922" d="M48.204 15.327l6.277-16.641-8.728.11z" mask="url(#Z)"/>
            </g>
        </g>
        <g>
            <path fill="#061922" d="M163.112 67.987l-1.912.474-3.054-12.939zM161.516 75.148a.932.932 0 0 1 1.215.503.925.925 0 0 1-.506 1.21.931.931 0 0 1-1.215-.504.925.925 0 0 1 .506-1.21M180.256 70.837a.931.931 0 0 1 1.215.504.925.925 0 0 1-.506 1.209.931.931 0 0 1-1.214-.504.924.924 0 0 1 .505-1.209"/>
            <path fill="#FFD55C" d="M181.538 41.931l9.937-2.285 1.95 8.407c1.073 4.624-1.849 9.281-6.493 10.35l-9.937 2.285-1.95-8.407c-1.072-4.625 1.85-9.282 6.493-10.35M147.93 49.661l-9.938 2.286 1.95 8.408c1.073 4.624 5.75 7.533 10.394 6.465l9.936-2.285-1.95-8.408c-1.072-4.624-5.75-7.534-10.393-6.466"/>
            <path fill="#061922" d="M180.596 71.783c-1.901 3.021-4.829 5.268-8.421 6.095-3.592.826-7.213.085-10.253-1.8a13.097 13.097 0 0 0 2.487-.326c2.513-.578 4.7-1.851 6.438-3.597 2.332.81 4.858.998 7.37.42.83-.19 1.625-.457 2.38-.792M147.37 51.084c4.042-.93 8.076 1.58 9.01 5.606.934 4.026-1.587 8.043-5.63 8.973-4.042.93-8.076-1.58-9.01-5.606-.934-4.026 1.586-8.043 5.63-8.973"/>
            <path fill="#FEFEFE" d="M151.027 52.885a1.771 1.771 0 0 1 2.124 1.321 1.763 1.763 0 0 1-1.327 2.115 1.763 1.763 0 1 1-.797-3.436"/>
            <path fill="#061922" d="M182.668 42.965c4.042-.93 8.077 1.58 9.01 5.606.934 4.026-1.586 8.043-5.629 8.973-4.043.93-8.077-1.58-9.01-5.606-.935-4.026 1.586-8.043 5.629-8.973"/>
            <path fill="#FEFEFE" d="M186.28 44.837a1.763 1.763 0 1 1 .797 3.436 1.771 1.771 0 0 1-2.123-1.321 1.763 1.763 0 0 1 1.327-2.115"/>
            <path fill="#061922" d="M162.347 66.909a1.462 1.462 0 0 0 .018 2.853l6.587 1.403c.305.093.964.305 1.697.137l-.36-1.554-.36-1.554-.605-2.608-6.75 1.289a1.485 1.485 0 0 0-.227.034m13.83-3.181a1.468 1.468 0 0 1 1.76 1.096 1.455 1.455 0 0 1-.52 1.476l-5.302 4.138c-.233.216-.731.695-1.465.864l-.36-1.554-.361-1.554-.605-2.608 6.633-1.79c.07-.027.144-.05.22-.068M168.558 80.846a.474.474 0 1 1 .276-.908 7.458 7.458 0 0 0 7.25-1.668.478.478 0 0 1 .674.024.474.474 0 0 1-.024.672 8.386 8.386 0 0 1-6.015 2.24 8.43 8.43 0 0 1-2.161-.36"/>
            <path fill="#061922" d="M175.964 65.031l1.927-.41-2.954-12.96zM176.382 38.875a.766.766 0 0 1-1.058.214.759.759 0 0 1-.215-1.054 10.642 10.642 0 0 1 4.618-3.87A10.692 10.692 0 0 1 191.8 36.65a.758.758 0 0 1-.038 1.075.766.766 0 0 1-1.08-.04 9.123 9.123 0 0 0-5.213-2.773 9.166 9.166 0 0 0-5.132.646 9.117 9.117 0 0 0-3.955 3.317M151.053 40.662a.76.76 0 1 1-.49 1.44 9.166 9.166 0 0 0-9.616 2.421 9.095 9.095 0 0 0-2.41 5.376.762.762 0 0 1-1.52-.136 10.584 10.584 0 0 1 2.812-6.275 10.692 10.692 0 0 1 11.224-2.826M183.23 67.623a.118.118 0 0 1-.156-.057.117.117 0 0 1 .056-.156l8.99-4.243a.118.118 0 0 1 .157.056.117.117 0 0 1-.056.156l-8.99 4.244zM184.14 68.575a.117.117 0 0 1-.068-.224l10.343-3.143a.118.118 0 0 1 .069.224l-10.345 3.143zM184.594 69.629a.118.118 0 1 1-.012-.235l7.264-.389a.118.118 0 1 1 .012.235l-7.264.389zM157.72 73.255c.065 0 .119.088.119.198 0 .11-.052.2-.117.2l-9.948.192c-.065 0-.118-.088-.119-.198 0-.11.052-.2.117-.2l9.948-.192zM157.289 74.511a.118.118 0 0 1 .134.098.116.116 0 0 1-.098.134l-10.68 1.692a.118.118 0 0 1-.135-.097.118.118 0 0 1 .098-.134l10.68-1.693zM157.289 75.672a.118.118 0 0 1 .154.063.118.118 0 0 1-.063.153l-6.699 2.823a.118.118 0 0 1-.154-.063.117.117 0 0 1 .063-.153l6.699-2.823zM169.656 69.218c-.04-.168.146-.354.414-.416.268-.061.516.025.555.193l1.084 4.674c.04.168-.146.354-.414.416s-.516-.025-.555-.193l-1.084-4.674z"/>
            <path fill="#E98C1C" d="M150.51 44.579a.38.38 0 0 1-.046-.536.383.383 0 0 1 .539-.044 23.52 23.52 0 0 1 5.958 7.683.379.379 0 0 1-.178.507.383.383 0 0 1-.51-.177 22.667 22.667 0 0 0-5.764-7.433M173.216 40.332a.381.381 0 0 1 .738.19 16.866 16.866 0 0 0-.485 5.603.382.382 0 1 1-.762.06 17.599 17.599 0 0 1 .51-5.853"/>
            <path fill="#061922" d="M36.789 34.803c.418-.18 1.286-.246 2.602-.201 1.316.044 2.259.17 2.827.38l1.122.357c.927.626 1.45.938 1.57.938 1.227.953 1.93 2.204 2.11 3.753.178.656.209 1.252.089 1.788 0 .179-.06.566-.18 1.161l-.448 1.028-.539.76c-.18.03-.284.044-.314.044-1.107.18-1.96.201-2.557.067-.599-.134-1.122-.454-1.571-.96a1.111 1.111 0 0 1-.134-.491c.03-.15.074-.284.134-.403l.225-.715c.388-.953.358-1.757-.09-2.412 0-.09-.15-.254-.45-.492-.298-.238-.53-.417-.695-.536-.164-.12-.456-.134-.874-.045-.718.298-1.332 1.206-1.84 2.726-.598.774-1.017 1.787-1.256 3.038-.36 2.234-.54 3.5-.54 3.798l-.044.983v.402c-.06.06-.03 1.356.09 3.888.03.149.09.357.18.625.089.328.224.864.403 1.609l.584.983c.15.089.343.357.583.804.15 0 .269.104.359.313.21.208.299.328.269.357.15.03.374.12.673.268.808.417 1.51.328 2.109-.268.21-.208.471-.499.785-.87.314-.373.554-.671.718-.895.165-.223.426-.439.785-.647.987-.745 1.84-.715 2.558.089.15.238.172.812.067 1.72-.104.908-.53 1.854-1.279 2.837-.06.179-.254.47-.583.872a4.727 4.727 0 0 1-1.032.96c-.06.209-1.196.358-3.41.447-.12 0-.359-.03-.718-.09-.329.09-.77.045-1.324-.133-.553-.179-.86-.268-.92-.268l-.583-.134a1.35 1.35 0 0 1-.718-.224c-.239-.149-.635-.41-1.189-.782-.553-.372-.98-.677-1.279-.916-.897-.715-1.54-1.534-1.93-2.457-.119-.209-.193-.5-.223-.872s-.09-.648-.18-.826c-.24-.239-.351-.626-.336-1.162a14.055 14.055 0 0 0-.113-1.966c0-.357.015-.566.045-.625-.15-.15-.209-.41-.18-.782.03-.373.046-.886.046-1.542.09-.179.127-.707.112-1.586-.015-.879.008-1.542.067-1.988-.12-.269-.134-.656-.045-1.162l.045-1.34c.03-.537.165-1.103.404-1.699.03-.268.09-.588.18-.96.09-.373.478-1.125 1.166-2.257 0-.238.225-.536.673-.893 0-.12.12-.298.36-.537.238-.238.508-.536.807-.893.419-.507.882-.88 1.39-1.118a8.654 8.654 0 0 0 1.437-.848M48.7 57.968c-.077-.098-.134-.317-.17-.655a3.5 3.5 0 0 1 .017-.932c.047-.283.067-.66.058-1.127.034-.085.075-.33.126-.735.051-.406.08-.814.088-1.224.007-.41.031-.741.074-.992.043-.25.072-.53.089-.84.041-.15.118-.408.231-.772-.02-.024.005-.305.072-.842.068-.536.166-.963.295-1.28.078-.614.217-1.275.418-1.984l.07-.559c.272-.923.455-1.578.549-1.967.082-.479.198-.865.347-1.158-.053-.296.124-.897.528-1.803.115-.208.439-.379.97-.513l-.038.029c.143-.071.422-.07.837.004.415.074.69.153.825.237.135.083.382.203.742.36.49.194.468 1.426-.063 3.695-.027.22-.162.759-.404 1.618a9.64 9.64 0 0 1-.268 1.335l-.08.624-.168.813a8.858 8.858 0 0 1-.087.557c-.033.173-.078.44-.134.8-.057.36-.125.635-.205.826-.08.19-.123.318-.132.384-.074.057-.141.238-.202.542-.069.37-.191.81-.368 1.322-.134.184-.235 1.339-.302 3.466-.038.663.062 1.115.3 1.355.237.241.608.226 1.11-.044.15-.115.237-.193.264-.234l.195-.477c.087.011.236-.193.445-.612l.446-.611.148-.382c.022-.176.147-.41.374-.705a6.31 6.31 0 0 0 .427-.597l.701-1.58.301-.797c.017-.132.136-.362.355-.69.014-.11.105-.388.273-.834.052-.416.078-.713.078-.891.022.003.047-.06.075-.191.027-.13.109-.337.245-.62.137-.283.232-.644.287-1.082.008-.066.135-.273.38-.62.071-.57.375-1.3.912-2.189-.025.02-.022-.003.008-.066.033-.085.058-.154.076-.207a1.55 1.55 0 0 1 .072-.174.627.627 0 0 0 .058-.194c-.05-.14-.018-.302.095-.488s.216-.385.31-.596c.093-.21.198-.42.313-.628l.858-.427c.11.014.26.016.452.007.19-.01.624.05 1.3.178.254.12.432.388.537.801.195.403.16.955-.108 1.656-.02.153-.175.678-.466 1.577-.02.153-.131.506-.335 1.059-.203.553-.36 1.05-.472 1.492-.112.443-.21.736-.295.881a3.117 3.117 0 0 0-.128.752l-.376 1.388c-.044.35-.143.872-.297 1.564a16.81 16.81 0 0 1-.42 1.6c-.125.373-.116 1.148.027 2.322l.127 2.185c-.041.328-.021.615.06.859l.121.365-.02.164c.464 1.282.167 1.956-.892 2.024-.522.069-.842.123-.958.165-.118.04-.35-.01-.702-.154a2.281 2.281 0 0 1-.93-.734c-.07-.142-.142-.551-.214-1.228-.049-.14-.078-.532-.086-1.178-.057-.074-.103-.336-.135-.785.054-.082.028-.23-.079-.444-.193.288-.327.471-.404.55-.184.223-.3.38-.345.475a25.36 25.36 0 0 1-.332.642l-.726.978c-.57.796-1.19 1.108-1.86.936-.02-.025-.236-.074-.652-.148-.076-.099-.375-.214-.894-.345a2.128 2.128 0 0 0-.324-.09 34.23 34.23 0 0 1-.522-.116c-.036-.071-.185-.212-.45-.423-.629-.323-1.038-.708-1.228-1.154-.192-.069-.316-.24-.371-.514-.027-.137-.132-.461-.313-.973l-.111-.982zM73.077 61.82l-.31.035c-.225.073-.677.09-1.357.051-1.194-.05-2.179-.308-2.955-.776a7.666 7.666 0 0 1-.792-.657c-.3-.279-.456-.476-.47-.59a7.392 7.392 0 0 1-.033-.449 1.788 1.788 0 0 0-.116-.543l-.031-.275c-.085-.13-.102-.377-.05-.742.05-.365.04-.66-.033-.884-.08-.292-.151-.609-.214-.95-.08-.083-.074-.339.017-.767-.173-3.111-.276-4.816-.31-5.113l.054-1.05c-.194-.674-.24-1.272-.137-1.794l-.087-.755c-.06-.318-.075-1.256-.044-2.813-.124-.264-.476-.584-1.054-.958-.128-.102-.264-.266-.407-.493-.142-.227-.14-.616.006-1.166.117-.2.485-.543 1.104-1.031.03-.143.62-.477 1.771-1.003l.624-.349c.308-.151.947-.27 1.915-.358.536.008.974.063 1.311.163 1.239.438 2.394.967 3.467 1.587.315.103.543.263.685.479.445.227.88.624 1.307 1.19.426.566.672.926.736 1.081.2.72.186 1.614-.04 2.684-.1.545-.733 1.73-1.896 3.556.237.043.65.193 1.24.45.079.084.339.217.779.398.054.064.126.136.217.219.091.082.164.155.218.219l.295.14.404.475.57.388c.255.203.468.433.638.692.381.281.596.523.642.727l.145.645c.006.254-.244 1.117-.75 2.59-.195.533-.472.958-.831 1.278l-.446.677c-.117.199-.35.457-.697.776a8.022 8.022 0 0 0-.857.898c-.11.058-.276.182-.5.37a9.716 9.716 0 0 1-1 .706c-.446.283-.746.456-.902.52-.444.19-1.052.364-1.826.522zm-2.222-5.939l.164.816c.116.196.15.493.103.893s-.024.699.068.897c.045.389.083.617.114.683.207-.024.513-.152.917-.383.404-.232.662-.366.774-.402.113-.036.252-.145.417-.326.54-.363 1.099-.775 1.675-1.235l.71-.812c.574-.877.967-1.513 1.177-1.909l.136-.641c.225-.676-.132-1.25-1.072-1.722-.215-.254-.616-.394-1.201-.42l-.034.005c-.832-.138-1.313-.175-1.446-.113l-1.478.516c-.26.169-.499.266-.717.29-.219.026-.466-.05-.743-.227l.145.957c-.11.453-.108.882.009 1.286.14.402.233 1.017.282 1.847zm2.944-9.626l.418-1.23c.077-.334.1-.592.068-.774a7.388 7.388 0 0 1-.07-.444 3.391 3.391 0 0 0-.083-.425 1.134 1.134 0 0 0-.284-.49c-.146-.157-.286-.257-.419-.3-.133-.043-.38-.113-.74-.211l-.763.052c-.705-.058-1.285.066-1.739.373.059.504.053 1.571-.015 3.203l.066 2.393-.03 1.256c.161-.019.56-.192 1.198-.52l.436-.467c.089-.034.347-.318.775-.854.109-.06.222-.188.34-.387l.296-.451c.072.015.186-.114.34-.387l.206-.337zM21.357 72.594c.093.453.354 1.498.783 3.136.723 2.91 1.158 4.685 1.305 5.322l.678 1.835.597 1.847c.422-1.267.607-1.992.553-2.176-.028-.188.101-.92.385-2.193.48-1.248.75-2.327.812-3.24.003-.166.096-.576.276-1.233-.092-.068-.062-.333.092-.794.15-.487.248-.995.296-1.522.048-.528.077-.806.086-.835a.313.313 0 0 1 .049-.089c.07-.092.142-.35.219-.771.027-.388.024-.689-.007-.904l-.18-1.248c-.012-.08.015-.372.08-.875l-.174-.92c-.093-.645.097-1.522.57-2.631l.71-.8c-.035-.243.152-.42.563-.534.41-.113.785-.14 1.124-.078.339.06.562.084.67.068.124.092.534.17 1.231.235.34.061.577.232.714.514.137.282.243.678.317 1.188l.17 3.182c.027.188.134 1.503.322 3.942l.226 1.283c-.02.058.033.517.157 1.376l.303 2.094.11.766.342 1.513c-.107.015.227 1.187 1.003 3.515.055.376.314 1.168.777 2.376s.688 2.238.673 3.09c.062.43-.272.875-1.004 1.336-.609-.022-.998-.145-1.168-.368-.262-.1-.426-.185-.491-.258l-.382-.356a4.312 4.312 0 0 1-1.232-1.099c-.216-.16-.39-.41-.52-.747-.325-.337-.554-.784-.69-1.34-.135-.557-.293-.938-.474-1.145a3.526 3.526 0 0 1-.44-.615c-.34-.253-.605-.757-.796-1.51a55.444 55.444 0 0 0-.53-1.96 4.81 4.81 0 0 1-.065-.73 2.397 2.397 0 0 1-.212-.463 5.314 5.314 0 0 0-.112-.354l-.052.788c-.061.146-.161.695-.299 1.647l-.471 2.74-.362 2.64c-.123.101-.238.446-.346 1.037-.153.653-.246 1.009-.28 1.068-.031.06-.067.147-.106.262a4.02 4.02 0 0 1-.577 1.151c-.63.776-1.35 1.078-2.16.906-.81-.172-1.447-.636-1.914-1.391-.255-.43-.446-.704-.573-.822-.058-.212-.26-.566-.608-1.064-.262-.484-.503-1.107-.724-1.87-.17-.223-.324-.625-.463-1.208-.17-.223-.315-.558-.435-1.007-.12-.449-.264-.88-.434-1.295-.2-.437-.375-.974-.522-1.61-.124-.476-.454-1.333-.99-2.572-.093-.07-.24-.322-.44-.76.008.438.015.677.02.717.007.04-.006.72-.035 2.04.061.046.106.451.134 1.214a6.37 6.37 0 0 0-.05 1.652c-.007 1.481.056 2.582.187 3.303.116.23.165.518.146.863-.02.346-.025.69-.017 1.03.008.342-.009.653-.051.933l.04.282c.04.844.094 1.316.164 1.415.042.296-.02.675-.187 1.137-.167.463-.501.675-1.002.637-.894-.091-1.416-.18-1.567-.27-.366-.44-.576-.848-.63-1.224l-.28-1.934-.023-.736c-.04-.077-.07-.388-.093-.932-.032-.023-.077-.243-.137-.66-.06-.416-.146-.725-.258-.928l-.058-.403c-.186-.906-.27-1.435-.25-1.588.019-.154-.035-.482-.163-.984.108-.016.145-.233.112-.654-.033-.42-.058-.875-.074-1.366l.267-.162c-.059-.019-.126-.393-.204-1.122 0-.191-.002-.684-.007-1.479-.005-.794-.034-1.331-.088-1.61-.054-.28.022-.751.23-1.411.322-1.773.47-2.89.444-3.353a5.96 5.96 0 0 1 .048-1.24c-.02-.902.13-1.677.45-2.325.103-.618.403-1.017.9-1.198l.432-.432.041-.006c.458-.45 1.367-.634 2.727-.555 1.207.348 1.918.89 2.134 1.627-.053.391.175 1.688.686 3.89l.052.362zM42.745 71.052c.282-.084.845-.061 1.687.066.842.128 1.438.28 1.787.457l.693.314c.549.472.861.712.938.721.716.705 1.072 1.562 1.07 2.57.065.435.04.82-.078 1.155-.014.115-.082.36-.204.733l-.366.626-.403.448a2.168 2.168 0 0 1-.205.005c-.725.031-1.275-.019-1.648-.15a1.892 1.892 0 0 1-.937-.735.716.716 0 0 1-.049-.326c.03-.094.07-.176.117-.248l.199-.442c.322-.584.364-1.102.125-1.557.007-.058-.077-.174-.25-.35-.175-.175-.31-.308-.407-.396-.097-.09-.283-.121-.558-.095-.484.137-.947.675-1.39 1.612-.442.453-.788 1.072-1.037 1.857-.4 1.409-.611 2.208-.634 2.4l-.104.628-.03.258c-.043.034-.122.868-.237 2.504.007.098.03.237.068.416.032.217.078.571.137 1.063l.3.675c.089.07.194.256.314.561.096.012.165.088.206.228.12.15.168.233.146.25.094.03.231.105.412.223.487.328.946.324 1.375-.014.15-.118.34-.285.571-.5.23-.216.406-.389.529-.52.122-.131.307-.25.553-.357.691-.405 1.236-.321 1.637.25.078.164.049.534-.088 1.11-.136.575-.481 1.15-1.037 1.726-.051.11-.198.282-.44.516a3.082 3.082 0 0 1-.736.54c-.055.129-.796.139-2.225.03a3.53 3.53 0 0 1-.454-.112c-.218.033-.498-.029-.84-.186-.342-.156-.532-.236-.57-.241l-.365-.13a.87.87 0 0 1-.445-.198 29.616 29.616 0 0 1-.704-.591c-.328-.28-.578-.51-.752-.685-.522-.527-.873-1.101-1.053-1.724-.06-.143-.087-.335-.078-.576.009-.242-.008-.423-.053-.545-.135-.171-.178-.428-.127-.772.05-.343.075-.767.077-1.27.027-.23.052-.363.076-.4-.085-.107-.104-.278-.056-.515.047-.237.096-.566.146-.987.07-.108.135-.445.192-1.01.057-.566.122-.99.194-1.273-.056-.181-.036-.431.06-.75l.13-.857c.06-.342.19-.696.388-1.06.04-.17.103-.372.189-.604.086-.233.393-.687.92-1.362.019-.153.186-.328.5-.523.01-.077.1-.183.272-.318.172-.135.367-.306.587-.513.307-.294.633-.498.978-.613a5.63 5.63 0 0 0 .987-.437M53.787 71.103l.266-1.706c.089-.194.119-.454.091-.781l.366-1.512a7.74 7.74 0 0 0 .012-.73c-.007-.262.017-.442.074-.538.114-.192.388-.348.822-.469l-.15-.01c.26-.132.61-.121 1.052.033.44.155.808.292 1.1.412.16.235.368.499.624.791l-.043 1.196c-.043.622-.05 1.27-.02 1.948-.043.272-.055.445-.035.522l.682-.629c.028-.048.328-.302.899-.763.57-.462.935-.75 1.093-.864.009-.124.165-.214.47-.268.66-.105 1.21-.074 1.65.093.44.167.685.252.734.255l1.346.69c-.007.1.112.195.357.287l.324.21c.125.008.281.105.47.293.296.07.394.289.294.657-.007.1.024.201.091.306l-.06.895c-.027.398-.194 1.092-.5 2.084-.305.99-.495 1.571-.57 1.741-.073.17-.164.389-.27.656a11.52 11.52 0 0 1-.334.765c-.154.414-.442.975-.867 1.684-.424.708-.838 1.261-1.241 1.659-.957 1.16-1.997 2.063-3.12 2.712-1.204.369-1.958.58-2.263.634-.075-.004-.105.443-.091 1.343l-.183 2.686v1.649l-.076 1.681c-.006.824-.062 1.282-.168 1.375l-.475.343c-.333.102-.622.095-.864-.021-.49-.183-.782-.315-.877-.396-.1-.007-.255-.118-.466-.331l-.402-.177c-.353.026-.56-.076-.62-.305-.235-.215-.348-.398-.338-.547l-.507-.858a2.825 2.825 0 0 1-.153-1.06c-.113-.557-.134-.983-.064-1.278l.022-1.423.134-1.977c.046-.671.05-1.108.014-1.31-.04-.153.074-1.47.343-3.95.109-.492.168-.8.176-.924l.874-4.55.198-1.261.02-.299c.096-.293.149-.514.159-.663zm7.975 1.137c.19-.962.264-1.481.22-1.56-.13.042-.288.169-.478.38l-1.33 1.298c-1.409 1.528-2.123 2.442-2.143 2.74-.004.05-.105.243-.303.58l-.003.599-.184 1.599-.028.41c-.073 1.07-.088 1.843-.045 2.32.03-.073.254-.22.67-.442l.695-.815c.704-.752 1.154-1.296 1.353-1.632.662-1.63 1.001-2.556 1.016-2.78.024-.348.158-.838.402-1.471.015-.224.057-.484.128-.779l.03-.447zM67.202 78.931l.2-1.457c0-.287.044-.574.133-.86 0-.376.188-.939.565-1.69 0-.043.1-.33.3-.86 0-.044.21-.696.631-1.954l.4-.96c0-.088.055-.259.165-.513.111-.254.194-.507.25-.761.055-.254.127-.502.216-.746.31-.595.587-1.103.831-1.522.465-.883 1.33-1.28 2.593-1.192l1.064.1c.665.176 1.175.363 1.53.562.51.199.853.414 1.03.645.178.232.255.613.233 1.143.022.264.089 1.413.2 3.443.11 2.031.166 3.057.166 3.08l.166 1.423c0 .133.244 1.722.732 4.768l.731 2.317c.443 1.237.682 1.882.715 1.937.033.056.127.293.283.712.243.729.033 1.214-.632 1.457-.599.088-1.042.033-1.33-.166-.11 0-.366-.099-.765-.298-.044-.11-.172-.215-.382-.314-.21-.1-.35-.182-.416-.249-.244-.065-.465-.408-.665-1.026-.066-.044-.188-.22-.366-.53-.155-.309-.199-.562-.132-.76-.156-.2-.233-.608-.233-1.226-.2-.331-.3-.85-.3-1.556 0-.707-.11-1.258-.332-1.656a9.564 9.564 0 0 1-3.624.828c-.244 0-.366.044-.366.132 0 .2-.066.552-.2 1.06l-.564 3.642c.221 1.634.022 2.494-.599 2.583-.178 0-.471.044-.881.132-.41.088-.748.01-1.014-.232-.51-.287-.87-.58-1.08-.877a1.54 1.54 0 0 1-.283-1.01c.022-.309.077-.971.166-1.987.044-.044.06-.292.05-.745-.011-.452.016-.8.083-1.042l.532-2.053c.066-.045.155-.375.266-.994-.022-.044-.033-.154-.033-.33l-.034-.398zm4.49-.96c.043-.044.304-.094.78-.15.477-.054 1.037-.248 1.68-.578.022 0 .01-.265-.034-.795a56.925 56.925 0 0 0-.166-1.987c-.045-.53-.089-.905-.133-1.126 0-.419-.167-1.29-.499-2.615l-1.463 4.933c-.31 1.369-.432 2.207-.366 2.516l.2-.198zM93.164 62.799c.264.585.443 1.37.539 2.355.074.28.122.568.145.862.023.813.068 1.347.135 1.602.095.357.22 1.143.376 2.357.177.881.505 2.228.983 4.04.478 1.812.991 3.342 1.54 4.59.548 1.247.923 1.866 1.125 1.854.203-.012.35-.208.442-.586-.06-.121-.07-.473-.032-1.056a40.755 40.755 0 0 1-.18-3.8c.005-1.12-.02-1.836-.075-2.15-.021-.185-.072-.69-.153-1.514.016-.877-.07-1.77-.254-2.676l-.08-.306c-.261-1.405-.466-2.388-.614-2.95a22.542 22.542 0 0 0-.412-1.406l-.335-1.426c-.062-.34-.02-.65.123-.933.026-.007.112-.07.258-.19.147-.12.295-.234.445-.342.15-.107.428-.166.836-.178.408-.011.688.011.84.067.152.056.283.138.393.245.11.107.204.2.278.275.075.076.165.21.27.4.192.414.49 1.236.897 2.467.407 1.23.648 2.04.724 2.43.075.389.187.864.335 1.426l.103.546c.087.331.264 1.26.53 2.787.265 1.527.394 2.482.386 2.866.07.473.118.76.145.863l.057.68c.02.077.027.157.022.24-.006.083-.004.404.006.96.01.557.009.864-.003.922l.03.892c-.203 1.308-.348 2.056-.436 2.242.033.128-.132.54-.497 1.235l-.402.965-.247.31c-.737 1.257-1.832 1.625-3.284 1.105l-1.143-.438a3.863 3.863 0 0 0-.797-.528c-.046-.07-.2-.187-.462-.35a4.718 4.718 0 0 1-.72-.548c-.218-.203-.338-.348-.362-.438-.024-.089-.215-.346-.573-.77-.208-.164-.423-.408-.645-.732-.065-.038-.241-.291-.53-.762-.15-.152-.314-.463-.493-.935l.003 1.882c.054.204.045.534-.027.99l-.028.825c-.379 2.718-.615 4.212-.708 4.482-.313.682-.602 1.147-.866 1.393-.263.246-.713.412-1.348.496-.494.102-1.335.13-2.525.087l-.787-.49a1.637 1.637 0 0 1-.703-.798c-.412-.52-.692-.883-.843-1.089-.15-.206-.36-.615-.631-1.226l-.253-.957c-.071-.063-.248-.576-.53-1.54-.158-.394-.248-.63-.268-.706l-.032-.278c-.194-.113-.482-.788-.863-2.026l-.109-.258c-.02-.076-.067-.2-.14-.372a59.395 59.395 0 0 1-.497-1.262l-.64-1.96c-.016-.269-.104-.6-.263-.995l-.192-.728c-.383-1.454-.554-2.515-.51-3.181l-.048-.806a1.676 1.676 0 0 1-.034-.441c-.011-.352-.01-.714 0-1.085a7.255 7.255 0 0 0-.071-1.208c-.06-.435-.051-.765.026-.99.078-.225.22-.514.429-.869.208-.354.404-.596.588-.727.442-.197.726-.313.855-.346.254-.176.735-.274 1.442-.296.205-.053.54-.031 1.003.065.304.112.512.33.625.655.146.344.267.96.365 1.849.097.889.118 1.38.06 1.478.163.094.26.41.292.946.168.639.31 1.304.424 1.997.114.693.195 1.13.242 1.308l.121.46c.035.236.1.533.194.89.03.428.16 1.076.39 1.944.103.6.191.986.264 1.159l.125.785.141.536c.081.306.151.52.21.64.104.601.3 1.369.587 2.303.288.934.483 1.388.585 1.36l.703-2.475c.042-.256.076-.906.102-1.95l.698-2.965c.066-.89.112-1.393.136-1.509l.097-.721c.115-.085.167-.276.157-.573-.01-.298-.01-.666-.003-1.104.007-.439-.079-1.05-.258-1.835-.18-.786-.221-1.41-.124-1.871-.141-.536-.246-1.504-.314-2.905a8.392 8.392 0 0 0-.166-.939c.074-.756.218-1.305.429-1.647.211-.341.729-.532 1.555-.57.825-.039 1.391.16 1.699.599M112.429 89.22c-.179.178-.728.268-1.648.268-.638.127-1.392.025-2.26-.306l-.805-.267-1.188-.572a.562.562 0 0 0-.192.019c-.025.013-.089-.02-.191-.095a1.835 1.835 0 0 0-.536-.306c-.511-.356-.869-.674-1.073-.954-.818-1.297-1.227-2.378-1.227-3.243 0-.102.128-.292.384-.572.51-.61 1.15-.916 1.916-.916.306.025.549.127.727.305l1.265 1.641c.204.203.434.407.69.61l.498.535.766.648c.102.051.205.077.307.077.102.05.383.114.843.19.51-.127.945-.267 1.302-.42a5.07 5.07 0 0 1 .613-.533l.537-.611c.051-.05.14-.254.268-.61 0-.331.007-.554.02-.668.012-.115-.033-.426-.135-.935-.025-.076-.204-.28-.536-.61a5.937 5.937 0 0 0-.651-.993c-.154-.152-.895-.56-2.223-1.22l-.728-.42-.69-.61c-.332-.103-.804-.446-1.418-1.031a11.856 11.856 0 0 1-.574-.42c-.154-.05-.575-.483-1.265-1.297 0-.051-.217-.534-.651-1.45l-.345-1.488.153-.992c-.153-.662-.204-1.158-.153-1.488.102-.153.23-.458.383-.916-.076-.382.268-1.132 1.035-2.251 0-.153.562-.763 1.686-1.832l1.303-.687.613-.267c.23-.025.542-.063.938-.114.396-.051.99-.051 1.782 0 .792.05 1.29.152 1.494.305.18.076.69.42 1.533 1.03 1.124.992 1.737 1.883 1.84 2.671.434 1.297.46 2.684.076 4.16 0 .101-.357.305-1.073.61l-.958-.038c-.817-.102-1.596-.522-2.337-1.26-.205-.127-.358-.483-.46-1.068-.026-.61-.153-.98-.383-1.107-.026-.025-.128-.254-.307-.686-.434-.56-.721-.84-.862-.84-.14 0-.3.038-.479.115-.92.737-1.405 1.564-1.456 2.48-.179.738.051 1.64.69 2.709.28.407.46.61.536.61.153.255.447.573.882.954l.536.573 1.61 1.183.65.648.729.458c.408.178.805.42 1.188.725.51.382 1.137 1.094 1.877 2.137.153.229.358.916.613 2.06v1.489l-.191.877c-.128.127-.269.382-.422.763 0 .026-.14.37-.421 1.03-.077.128-.384.395-.92.802a8.054 8.054 0 0 1-2.567 1.373c-.205.051-.524.064-.958.039"/>
            <path fill="#FEFEFE" d="M84.954 98.7c.256-.312.608-.477 1.054-.496.731-.028 1.275.151 1.63.539.357.388.547.77.57 1.149.024.378-.073.581-.291.61-.314.01-.518-.033-.613-.128-.085.01-.194-.052-.327-.184-.058-.029-.133-.137-.228-.327l-.157-.354c-.076-.17-.171-.265-.285-.284-.142.057-.214.199-.214.426.038.444.252.87.641 1.276l.022.036c.014.023.083.101.206.234.75.822 1.14 1.484 1.168 1.986 0 .321-.066.534-.2.638-.407.482-.94.733-1.594.751-.656.02-1.197-.184-1.624-.61-.114-.113-.171-.222-.171-.326-.057-.18-.076-.297-.057-.354-.028-.265-.028-.464 0-.596.057-.302.28-.459.67-.468.142 0 .232.085.27.255.123.483.24.8.349.95.11.152.287.223.534.213.314-.019.463-.193.449-.524-.014-.331-.174-.639-.477-.923a1.412 1.412 0 0 0-.278-.262 1.391 1.391 0 0 1-.178-.135.194.194 0 0 0-.071-.085c-.19-.15-.43-.402-.72-.751-.289-.35-.444-.676-.463-.979-.037-.54.09-.964.385-1.277zm-5.213-.312c.142.123.22.294.235.51.014.218.01.37-.014.455-.024.085-.064.378-.121.88a.698.698 0 0 0-.043.269l-.142 1.262c0 .501.005.794.014.88.01.085.028.15.057.198.01.038.052.066.128.085.076.02.128 0 .157-.057 0-.085.028-.15.085-.198 0-.02.062-.151.185-.397 0-.038.017-.09.05-.156a.964.964 0 0 0 .071-.178.699.699 0 0 1 .036-.106c.038-.028.085-.132.142-.312 0-.104.057-.213.171-.326 0-.028.048-.142.143-.34l.028-.128c.171-.36.252-.61.242-.752l.072-.695.142-.567c.133-.303.323-.487.57-.554.114-.047.268-.028.463.057.194.085.318.168.37.248a.43.43 0 0 1 .078.234v.256l-.014.156v.765c0 .568.01.998.028 1.292.058.85.224 1.578.499 2.184.133.302.076.534-.171.694a.878.878 0 0 1-.498.142c-.323 0-.546-.122-.67-.368a1.614 1.614 0 0 1-.185-.383c-.057-.161-.095-.265-.114-.312-.057-.19-.095-.293-.114-.312l-.114-.27c-.152.483-.413 1.05-.783 1.702-.076.123-.21.227-.399.312a5.584 5.584 0 0 1-.555-.156 9.743 9.743 0 0 0-.613-.198c-.19-.019-.299-.05-.328-.093a.635.635 0 0 0-.064-.085c-.014-.014-.021-.026-.021-.035-.028-.047-.076-.071-.143-.071a.532.532 0 0 0-.17-.213c0-.01-.015-.056-.043-.142-.104-.066-.19-.264-.256-.595-.048-.047-.083-.353-.107-.915-.024-.563-.029-.915-.015-1.057.015-.142.022-.26.022-.354-.02-.038-.014-.123.014-.256a.801.801 0 0 0 .029-.27l.057-.595.114-.51c0-.142.047-.289.142-.44.095-.152.161-.241.2-.27.037-.075.17-.137.398-.184.048.01.11.016.185.021.077.005.148.014.214.028.066.015.185.088.356.22zm-7.264 2.965l.057-.724c.066-.652.266-1.21.598-1.673.323-.388.779-.586 1.368-.596h.085c.55 0 .95.118 1.197.355.265.208.462.435.59.68.129.246.212.426.25.54.038.113.062.278.071.496.019.406-.062.638-.242.695.133.898.052 1.612-.242 2.142a4.05 4.05 0 0 1-.414.709c-.132.17-.37.265-.711.283-.342 0-.639-.018-.89-.056-.252-.038-.53-.159-.834-.362-.304-.203-.517-.537-.64-1a6.33 6.33 0 0 1-.243-1.49zm2.607-1.334c-.067-.378-.252-.553-.556-.524-.17.01-.318.123-.442.34-.17.331-.244.759-.22 1.284.023.525.062.903.114 1.134.052.232.145.433.278.603.076.133.19.194.341.185.266 0 .461-.223.584-.667l.114-.34c.048-.048.057-.095.029-.142.095-.237.147-.516.156-.837-.095-.066-.152-.128-.17-.184a1.233 1.233 0 0 1-.086-.327c-.066-.047-.105-.137-.114-.269a1.958 1.958 0 0 0-.028-.256zm-4.06-.255l-.242 2.369v.163c0 .052.005.097.014.135a.58.58 0 0 0-.014.142v1.02c.038.322.038.511 0 .568-.057.019-.123.05-.2.092-.075.043-.22.052-.434.029-.213-.024-.368-.06-.463-.107l-.17-.042c-.095 0-.157-.043-.186-.128-.123-.076-.19-.175-.2-.298-.028-.047.006-.113.1-.198a2.124 2.124 0 0 0-.056-.206.578.578 0 0 1-.029-.248c.029-.047.015-.118-.043-.213 0-.104.015-.222.043-.355.038-.037.048-.174.029-.41.066-.095.1-.228.1-.398a.686.686 0 0 1 .042-.454c.066-.151.105-.303.114-.454a3.44 3.44 0 0 1 .128-.695c0-.094.045-.246.135-.454.09-.208.15-.33.178-.368l.228-.227.257-.1h.014a.473.473 0 0 1 .342.015c.275.103.441.184.498.24a.28.28 0 0 0-.07.17c-.01.077-.02.143-.03.2a.496.496 0 0 0-.085.212zm.029-3.588h.042c.333.019.549.116.648.29.1.175.138.343.115.504-.024.161-.152.36-.385.596s-.444.35-.634.34c-.057 0-.169-.028-.335-.085a1.975 1.975 0 0 1-.263-.1c-.01-.037-.038-.065-.086-.084-.246-.095-.384-.336-.413-.724 0-.038.029-.066.086-.085-.038 0-.043-.057-.014-.17.066-.208.213-.345.441-.411.295-.057.56-.08.798-.071zm-6.652 7.05c.18-1.23.27-1.864.27-1.901l.072-.398c.028-.028.043-.24.043-.638v-.284l.028-.297a3.477 3.477 0 0 1-.043-.468.886.886 0 0 1 .058-.54c.142-.189.384-.245.726-.17a.98.98 0 0 1 .327.17.983.983 0 0 1 .286.142c.075.029.113.203.113.525.114-.113.366-.24.755-.383.057 0 .176-.021.356-.064.18-.042.333-.063.456-.063.124 0 .218.014.285.042.19.114.294.187.313.22.02.033.04.083.065.149.023.066.03.099.02.099.086.085.11.18.072.284-.085.123-.218.194-.399.212-.17 0-.494.142-.968.426l-.428.213c-.37.255-.574.397-.612.425-.162 2.033-.266 3.158-.314 3.376a.59.59 0 0 1-.199.255c-.104.085-.232.071-.384-.042l-.2-.071a1.04 1.04 0 0 1-.427-.34l-.171-.227-.086-.242c0-.056-.004-.113-.014-.17v-.24zm-4.671-4.838c.142.123.22.294.235.51.014.218.009.37-.015.455-.024.085-.064.378-.12.88a.698.698 0 0 0-.043.269l-.143 1.262c0 .501.005.794.014.88a.49.49 0 0 0 .057.198c.01.038.052.066.128.085.076.02.129 0 .157-.057 0-.085.028-.15.085-.198 0-.02.062-.151.186-.397 0-.038.016-.09.05-.156a.964.964 0 0 0 .07-.178.629.629 0 0 1 .037-.106c.037-.028.085-.132.142-.312 0-.104.057-.213.17-.326 0-.028.048-.142.143-.34l.028-.128c.171-.36.252-.61.243-.752l.07-.695.143-.567c.133-.303.323-.487.57-.554.114-.047.268-.028.463.057s.318.168.37.248c.053.08.079.159.079.234v.256l-.015.156v.765c0 .568.01.998.029 1.292.057.85.223 1.578.499 2.184.133.302.076.534-.171.694a.878.878 0 0 1-.499.142c-.323 0-.546-.122-.67-.368a1.614 1.614 0 0 1-.185-.383c-.057-.161-.094-.265-.114-.312-.056-.19-.095-.293-.113-.312l-.114-.27c-.153.483-.414 1.05-.784 1.702-.076.123-.209.227-.399.312a5.584 5.584 0 0 1-.555-.156 9.79 9.79 0 0 0-.612-.198c-.19-.019-.3-.05-.328-.093a.673.673 0 0 0-.064-.085c-.014-.014-.021-.026-.021-.035-.03-.047-.077-.071-.143-.071a.536.536 0 0 0-.171-.213c0-.01-.014-.056-.043-.142-.104-.066-.19-.264-.256-.595-.048-.047-.083-.353-.107-.915-.024-.563-.028-.915-.014-1.057.014-.142.021-.26.021-.354-.019-.038-.014-.123.015-.256a.807.807 0 0 0 .028-.27l.057-.595.114-.51c0-.142.047-.289.142-.44.095-.152.162-.241.2-.27.038-.075.17-.137.398-.184.048.01.11.016.186.021.076.005.147.014.213.028.067.015.185.088.357.22zm-5.327-.17c.322-.264.82-.302 1.495-.113.161.076.309.189.442.34.066.104.118.27.156.497.038.227.045.463.022.709-.024.246-.09.456-.2.631-.11.175-.301.29-.577.347-.199 0-.322-.061-.37-.184-.086-.18-.105-.336-.057-.468.028-.198 0-.435-.085-.71-.02-.018-.067-.027-.143-.027l-.17.312c-.02.037-.098.318-.236.843-.138.525-.21.856-.22.993-.01.137-.024.263-.043.376 0 .652.047 1.109.142 1.369.095.26.19.418.285.475.028.028.111.043.25.043.137 0 .287-.038.448-.114.142-.104.275-.24.398-.411 0-.038.081-.095.243-.17l.114-.114c.351-.038.536.114.555.454.02.094-.01.199-.085.312-.047.114-.08.175-.1.184 0 .038-.128.255-.384.653-.095 0-.162.019-.2.056a.82.82 0 0 1-.655.157.27.27 0 0 0-.086-.015c-.028 0-.175-.023-.441-.07h-.2c-.246-.057-.413-.119-.498-.185a1.442 1.442 0 0 1-.399-.184l-.2-.199a.778.778 0 0 1-.177-.135c-.09-.08-.143-.141-.157-.184a1.24 1.24 0 0 0-.1-.199.502.502 0 0 1-.078-.248l-.071-.283c0-.114-.015-.185-.043-.213a.77.77 0 0 0-.043-.156 4.2 4.2 0 0 0-.028-.426c-.029-.293-.005-.477.071-.553.01 0 0-.085-.029-.255v-.51c0-.152.043-.355.129-.61.01-.124.066-.289.17-.497l.072-.184c.02-.152.1-.308.242-.469l.214-.255.17-.284a.945.945 0 0 1 .457-.326zm-7.037 3.49l-.527.042c-.294 0-.527-.028-.698-.085l.043.27c.029.784.247 1.3.655 1.545a.777.777 0 0 0 .285.071c.076 0 .176-.038.3-.113a.491.491 0 0 0 .1-.156c.008-.085.056-.123.141-.114.39-.492.684-.685.883-.581.2.132.3.236.3.312 0 .038-.024.08-.072.128v.085c0 .094-.06.264-.178.51a3.455 3.455 0 0 1-.377.624.624.624 0 0 1-.256.298 1.481 1.481 0 0 1-.969.227c-.076-.01-.128-.028-.157-.057a.384.384 0 0 0-.17-.014l-.115-.014a.38.38 0 0 1-.213-.057.494.494 0 0 0-.2-.085c-.247-.094-.396-.165-.448-.213a.645.645 0 0 0-.136-.099c-.037-.019-.128-.118-.27-.298a1.607 1.607 0 0 1-.214-.198.994.994 0 0 0-.15-.185c-.042-.038-.068-.123-.078-.255a.287.287 0 0 1-.057-.184l-.057-.114a.178.178 0 0 0-.085-.156.287.287 0 0 1-.086-.213v-.113c-.038-.019-.047-.076-.028-.17v-.37l-.014-.127v-.1a.66.66 0 0 1 .028-.24l-.014-.128a.964.964 0 0 0 .043-.227c.037-.198.08-.321.128-.369v-.127a.377.377 0 0 0 .014-.114c0-.047.012-.099.036-.156.023-.056.097-.27.22-.638l.228-.496a2.21 2.21 0 0 1 .314-.468c.01-.048.047-.133.114-.256l.185-.17a.476.476 0 0 1 .256-.184c.133-.066.233-.1.3-.1l.398-.056c.047.009.08.014.1.014h.185c.209.019.38.061.513.127.284.085.493.194.626.327.295.33.442.647.442.95 0 .303-.047.563-.143.78-.237.54-.408.88-.512 1.021-.171.313-.375.468-.613.468zm.043-2.043c.038-.142.033-.322-.014-.539a.403.403 0 0 0-.271-.085c-.142 0-.27.132-.384.397a2.569 2.569 0 0 0-.342.752h-.015c-.104.397-.156.61-.156.638.152.038.275.054.37.05.095-.005.204-.055.328-.15.218-.207.38-.562.484-1.063zm-4.358-.355c.19.407.285.747.285 1.022 0 .548-.048.964-.143 1.248 0 .104-.01.184-.029.24-.085.625-.194 1.088-.327 1.39-.047.067-.1.171-.157.313-.057.16-.2.345-.427.553 0 .028-.071.116-.214.262-.142.147-.365.268-.67.362-.35.114-.578.17-.683.17-.541.085-.935.005-1.182-.24l-.014.013c-.19.331-.418.43-.684.298-.161-.085-.254-.142-.278-.17-.023-.028-.04-.09-.05-.184a1.327 1.327 0 0 1-.07-.596l.07-.468a1.316 1.316 0 0 1-.014-.426v-.1c.02-.188.034-.55.043-1.084.01-.534.026-.86.05-.979.024-.118.036-.229.036-.333.113-1.296.178-1.988.192-2.078.014-.09.021-.395.021-.915v-.78a6.32 6.32 0 0 0-.007-.34c-.005-.076.012-.128.05-.156a1.458 1.458 0 0 1-.043-.738v-.17a.811.811 0 0 1 .114-.51c.067-.086.2-.166.399-.242.2-.075.365-.118.498-.127h.072a.56.56 0 0 1 .327.099c.114.047.171.16.171.34a.306.306 0 0 1 0 .185c.01.066-.035.735-.135 2.007-.1 1.272-.15 1.966-.15 2.085a2.25 2.25 0 0 1-.014.29.13.13 0 0 0 .085-.099c.01-.047.029-.08.057-.1.162-.112.243-.193.243-.24 0-.01.024-.033.07-.071.048-.038.077-.057.086-.057.02-.028.053-.047.1-.057l.257-.127c.009-.057.146-.083.412-.078.266.005.428.026.484.064.096.047.16.078.193.092a.383.383 0 0 0 .1.028c.033.005.163.045.391.12.105 0 .157.015.157.043a.221.221 0 0 0 .085.029c.162.094.243.165.243.212zm-3.248 4.071l.071-.326.072-.199c.038-.33.118-.624.242-.88l.085-.34c.057-.274.166-.581.328-.921.161-.34.294-.577.399-.71.085-.094.213-.184.384-.27h.157c.095.19.152.327.17.412.03.114.043.194.043.241l.015.142v.014c0 .029.01.057.028.085v.128c.067.35.09.558.072.624l-.157.71-.143.325a1.966 1.966 0 0 1-.085.242c.019 0 0 .038-.057.113a2.62 2.62 0 0 1-.285.419.37.37 0 0 0-.1.234 5.296 5.296 0 0 0-.228.127 2.295 2.295 0 0 0-.192.178.846.846 0 0 1-.15.134c-.17.057-.28.085-.327.085-.01 0-.123-.146-.342-.44v-.127zm1.795-3.631l-.043-.014c.02.01.033.014.043.014zM85.442 46.234c1.139 0 2.067-.924 2.067-2.059a2.067 2.067 0 0 0-2.067-2.058c-1.14 0-2.068.924-2.068 2.058 0 1.135.929 2.06 2.068 2.06M90.752 45.031a2.38 2.38 0 0 0 2.38-2.37 2.38 2.38 0 0 0-2.38-2.371 2.38 2.38 0 0 0-2.381 2.37 2.38 2.38 0 0 0 2.38 2.371M96.51 47.697a2.38 2.38 0 0 0 2.38-2.37 2.38 2.38 0 0 0-2.38-2.371 2.38 2.38 0 0 0-2.38 2.37 2.38 2.38 0 0 0 2.38 2.371M99.288 53.647a2.334 2.334 0 0 0 2.334-2.324 2.334 2.334 0 1 0-4.668 0 2.334 2.334 0 0 0 2.334 2.324"/>
            <path fill="#FEFEFE" d="M84.251 49.677c.575-2.187 3.146-3.139 5.737-3.231 7.272-.26 9.07 11.479 1.293 9.406-2.397-.639-7.834-3.114-7.03-6.175"/>
        </g>
    </g>
</svg>
