<svg xmlns="http://www.w3.org/2000/svg" width="50" height="50" viewBox="0 0 50 50" fill="none">
  <g clip-path="url(#clip0_15336_41873)">
    <path fill-rule="evenodd" clip-rule="evenodd" d="M25 3.83325C16.75 3.83325 9.60417 8.56242 6.125 15.4374C6.9375 15.2291 7.77083 15.0416 8.58333 14.8749C11.9792 9.37492 18.0625 5.70825 25 5.70825C33.5417 5.70825 40.7708 11.2499 43.3125 18.9374C44.0625 19.0416 44.7917 19.2916 45.4792 19.7083C43.1458 10.5833 34.8542 3.83325 25 3.83325ZM5.375 32.9166C6.85417 36.6041 9.35417 39.7708 12.5208 42.0833V39.7083C10.375 37.8749 8.625 35.5833 7.4375 32.9791C7.0625 33.0624 6.66667 33.1249 6.3125 33.1249C5.95833 33.1458 5.64583 33.0624 5.375 32.9166ZM41 35.7916C37.5417 40.9166 31.6667 44.2916 25 44.2916C22.625 44.2916 20.3542 43.8541 18.25 43.0833L16.3958 44.3541C19.0208 45.5208 21.9375 46.1666 24.9792 46.1666C34.4167 46.1666 42.3958 39.9999 45.125 31.4791C44.8125 31.6041 44.5 31.7291 44.1667 31.8124C43.7917 31.9166 43.3958 31.9791 43 31.9791C43.1458 32.4166 43.2917 32.8749 43.4167 33.3124C43.6875 34.2916 43.1458 35.1874 42.1875 35.4583L41 35.7916Z" fill="#FFB941"/>
    <path fill-rule="evenodd" clip-rule="evenodd" d="M24.9993 7.41675C19.2077 7.41675 14.0619 10.2292 10.8535 14.5626C11.666 14.5209 12.4993 14.5834 13.2285 14.8126C15.041 15.3959 16.0618 16.8751 16.4993 18.6667C16.666 19.3542 16.6035 20.0417 16.4368 20.7084C16.3952 20.8959 16.3327 21.0834 16.2493 21.2501C16.3743 21.0834 16.5202 20.9167 16.666 20.7501C17.9368 19.3542 19.6035 18.7292 21.4785 18.7292C23.1869 18.7292 24.666 19.3751 25.8535 20.6042C25.9994 20.7501 26.1452 20.9168 26.2702 21.0834C27.1035 20.1459 28.1244 19.4376 29.3952 19.0626C31.2077 18.5209 32.9577 18.8542 34.5618 19.8126C34.9993 20.0834 35.416 20.3959 35.7702 20.7501C35.8118 20.7292 35.8327 20.7292 35.8743 20.7084C36.416 20.4792 36.9994 20.2084 37.5619 20.0418C38.041 19.9168 38.4785 19.9584 38.8535 20.1667C39.3952 19.7084 39.9994 19.3126 40.6869 19.1251C40.9577 19.0417 41.2285 19.0001 41.4993 18.9584C39.041 12.2293 32.5827 7.41675 24.9993 7.41675ZM14.1452 38.8334V42.8126C14.1243 43.0209 14.2285 43.2084 14.3952 43.3126C14.5827 43.4167 14.791 43.4167 14.9577 43.2917L18.0827 41.1667C20.2077 42.0626 22.541 42.5834 24.9785 42.5834C30.416 42.5834 35.2702 40.1042 38.4994 36.2292C37.8327 36.1042 37.3118 35.6251 37.1243 34.9376L35.6243 29.3751C35.2702 29.6251 34.8743 29.7709 34.4368 29.7709C34.4368 29.8334 34.4368 29.8751 34.4368 29.9167C34.416 30.5209 34.3743 31.3542 34.0618 31.8751C33.8118 32.2917 33.416 32.5001 32.9785 32.6251C31.1868 33.1251 29.3744 32.5418 27.8327 31.6043C27.3744 31.3334 26.9577 31.0209 26.5827 30.6876C25.3119 31.9167 23.5618 32.2917 21.8327 32.2917C19.9785 32.2917 18.2702 31.7501 16.916 30.4792C16.7702 30.3334 16.6244 30.1876 16.4785 30.0209C15.3535 30.9584 13.8535 31.5001 12.4785 31.8334C12.2285 31.8959 11.9785 31.9584 11.7493 32.0001C11.5202 32.0626 11.2702 32.1042 11.041 32.1667C10.416 32.3126 9.79102 32.4584 9.16602 32.6042C10.3118 35.0626 12.041 37.1876 14.1452 38.8334Z" fill="#FFDA45"/>
    <path fill-rule="evenodd" clip-rule="evenodd" d="M35.1465 32.5834C34.7298 33.2709 34.084 33.6667 33.3132 33.8959C31.1673 34.5001 29.0007 33.8542 27.1465 32.7292C26.959 32.6042 26.7715 32.4792 26.584 32.3542C25.1882 33.2709 23.5007 33.6042 21.8132 33.6042C19.7715 33.6042 17.8757 33.0417 16.3132 31.7292C15.2298 32.3959 13.9798 32.8126 12.7506 33.1251C12.5006 33.1876 12.2506 33.2501 12.0215 33.2917C11.7923 33.3542 11.5423 33.3959 11.3132 33.4584C10.7923 33.5834 10.2715 33.7084 9.77148 33.8334C9.54232 33.4376 9.33398 33.0417 9.14648 32.6459C9.77148 32.5001 10.3965 32.3542 11.0215 32.2084C11.2507 32.1459 11.5007 32.1042 11.7298 32.0417C11.959 32.0001 12.209 31.9376 12.459 31.8751C13.834 31.5417 15.334 31.0001 16.459 30.0626C16.6048 30.2292 16.7507 30.3751 16.8965 30.5209C18.2507 31.8126 19.9798 32.3334 21.8132 32.3334C23.5423 32.3334 25.2923 31.9584 26.5632 30.7292C26.9382 31.0626 27.3548 31.3751 27.8132 31.6459C29.3548 32.5834 31.1673 33.1667 32.959 32.6667C33.3965 32.5417 33.7923 32.3334 34.0423 31.9167C34.3548 31.3959 34.3965 30.5626 34.4173 29.9584C34.4173 29.9167 34.4173 29.8542 34.4173 29.8126C34.8548 29.8126 35.2507 29.6667 35.6048 29.4167L37.1048 34.9792C37.2923 35.6667 37.8132 36.1459 38.4798 36.2709C38.1673 36.6459 37.8548 36.9792 37.5215 37.3334C36.709 36.9584 36.084 36.2501 35.834 35.3126L35.1465 32.5834Z" fill="#FFB941"/>
    <path fill-rule="evenodd" clip-rule="evenodd" d="M16.625 27.5001C16.5625 27.6667 16.4792 27.8126 16.3958 27.9584C15.75 29.1042 14.3333 29.9376 12.1458 30.4584C11.9792 30.5001 11.7292 30.5626 11.4167 30.6251C11.1042 30.7084 10.8542 30.7501 10.7083 30.7917C8.25 31.3959 6.77083 31.6876 6.29167 31.7084C6.08333 31.7084 5.95833 31.6251 5.91667 31.4584C5.75 30.7501 5.52083 29.6667 5.25 28.1876C4.97917 26.7292 4.77084 25.6251 4.58334 24.9167C4.39584 24.1459 4 22.7084 3.41667 20.5834C3.27083 20.0417 3.02084 19.2292 2.70834 18.1459L2.66667 18.0001C2.625 17.8751 2.70834 17.7709 2.91667 17.6876C3.125 17.6042 3.89584 17.4167 5.22917 17.0834C7.35417 16.5626 8.60417 16.2709 8.95834 16.2084C10.6042 15.8751 11.8958 15.8542 12.7917 16.1251C13.9792 16.5001 14.75 17.4584 15.125 18.9584C15.2292 19.3542 15.2083 19.7917 15.0625 20.2917C14.9583 20.6459 14.8125 21.0209 14.6042 21.3959C14.4167 21.7292 14.3333 21.8334 14.3333 21.8542C14.3542 21.8959 14.4375 21.9584 14.6458 22.0001C15.1875 22.1459 15.6458 22.4792 16.0625 23.0001C16.2708 23.2501 16.4167 23.5209 16.5625 23.8126C16.7708 22.9792 17.1667 22.2501 17.7292 21.6459C18.6667 20.6042 19.9375 20.0834 21.5 20.0834C22.8125 20.0834 23.9375 20.5626 24.8542 21.5209C25.5417 22.2292 25.9583 23.0417 26.1458 23.9376C26.2708 23.6042 26.4375 23.2709 26.6458 22.9376C27.4583 21.5834 28.5208 20.7292 29.8333 20.3334C31.1875 19.9376 32.5208 20.1251 33.875 20.9376C34.5417 21.3334 35.0417 21.8334 35.4167 22.4376C35.6667 22.2917 36.0208 22.1251 36.4792 21.9167C37.1458 21.6042 37.6458 21.4167 37.9583 21.3334C38.2083 21.2709 38.4167 21.3959 38.5417 21.7292C38.6667 22.0626 38.7708 22.2084 38.8333 22.2084C38.875 22.1667 39 21.9792 39.5417 21.4376C40.0833 20.9167 40.6042 20.5626 41.125 20.4376C42.5625 20.0417 43.8333 20.2084 44.9583 20.9167C46.0417 21.6042 46.7708 22.6876 47.1667 24.1459C47.5625 25.5626 47.4583 26.8542 46.875 28.0209C46.2708 29.2292 45.2708 30.0209 43.8958 30.3959C43.375 30.5417 42.8125 30.5626 42.1458 30.4584C41.5 30.3751 41.1875 30.3126 41.25 30.2917C41.1667 30.3126 41.1458 30.4167 41.2083 30.6251C41.2917 30.9584 41.4583 31.4584 41.6667 32.1251C41.875 32.7917 42.0417 33.2917 42.125 33.6251C42.1875 33.8334 42.1042 33.9792 41.875 34.0209L39.8542 34.5834C39.3958 34.7084 39.1042 34.7709 38.9583 34.7709C38.75 34.7917 38.625 34.6876 38.5625 34.4792L36.5 26.8334C36.375 26.3542 36.2292 25.9167 36.1042 25.5001C36.0417 26.2084 35.7917 26.8959 35.4167 27.5417C35.0625 28.1251 34.6667 28.3542 34.2292 28.2084C34.1667 28.1876 33.5208 27.8751 32.2917 27.2917C31.5625 26.9584 30.4792 26.4167 29.0417 25.6876C28.8958 26.1251 28.9583 26.5626 29.25 27.0209C29.5 27.3959 29.8333 27.7084 30.25 27.9792C30.7708 28.2917 31.375 28.4792 32.0833 28.5209C32.3958 28.5209 32.6875 28.5209 33 28.5001C33.0833 28.6251 33.125 29.0626 33.0833 29.7709C33.0417 30.4792 33 30.9167 32.8958 31.0626C32.875 31.1042 32.7917 31.1459 32.6458 31.1876C31.4792 31.5209 30.125 31.2292 28.625 30.3126C27.2292 29.4584 26.3542 28.3751 25.9792 27.0417C25.875 26.7084 25.8333 26.3542 25.8125 26.0209C25.75 26.0626 25.6667 26.0834 25.6042 26.1042C25.5208 26.1251 24.8125 26.1876 23.4792 26.3126C22.6667 26.3959 21.4583 26.5001 19.8542 26.6251C19.9583 27.0834 20.25 27.4167 20.7292 27.6667C21.125 27.8542 21.5833 27.9584 22.0833 27.9584C22.6875 27.9584 23.3125 27.7917 23.9167 27.4792C24.1667 27.3126 24.4375 27.1667 24.6875 27.0001C24.8333 27.0626 25.0833 27.4167 25.4167 28.0417C25.75 28.6667 25.9375 29.0626 25.9375 29.2292C25.9375 29.2709 25.875 29.3542 25.7917 29.4584C24.9583 30.3542 23.6667 30.7917 21.8958 30.7917C20.2708 30.7917 18.9375 30.3126 17.9375 29.3542C17.2917 28.9167 16.875 28.2501 16.625 27.5001ZM43.4167 25.1876C43.2708 24.6667 42.9792 24.2292 42.5625 23.9376C42.1042 23.6251 41.6042 23.5209 41.0833 23.6667C40.5625 23.8126 40.1875 24.1251 39.9792 24.6459C39.8125 25.1042 39.7917 25.6042 39.9375 26.1459C40.0833 26.7084 40.3542 27.1459 40.75 27.4376C41.1667 27.7501 41.6667 27.8334 42.2083 27.6876C43.3958 27.3542 43.7917 26.5209 43.4167 25.1876ZM32.6042 25.2292C32.8333 24.8751 32.8958 24.4792 32.7917 24.0417C32.7083 23.6042 32.4792 23.2917 32.125 23.0626C31.75 22.8334 31.3542 22.8126 30.9375 22.9584C30.5417 23.1042 30.2292 23.3751 30 23.7501C29.8958 23.8959 29.9375 24.0417 30.1042 24.1251C30.5417 24.3959 31.25 24.7292 32.2292 25.1667C32.4375 25.2917 32.5625 25.2917 32.6042 25.2292ZM22.6042 24.3751C22.6042 23.9584 22.4583 23.5834 22.1458 23.2501C21.8542 22.9376 21.4792 22.7709 21.0625 22.7709C20.625 22.7709 20.2708 22.9584 20 23.3126C19.75 23.6459 19.6042 24.0417 19.6042 24.4792C19.6042 24.6667 19.7083 24.7501 19.8958 24.7501C20.3958 24.7501 21.1875 24.6876 22.25 24.5417C22.5 24.5209 22.6042 24.4584 22.6042 24.3751ZM11.1458 20.0417C11 19.4584 10.625 19.1667 10.0208 19.1042C9.6875 19.0834 9.14584 19.1667 8.41667 19.3334C7.70834 19.5001 7.35417 19.6459 7.375 19.7501C7.39583 19.8751 7.4375 20.0626 7.47917 20.3334C7.52083 20.6042 7.5625 20.7917 7.58333 20.9167C7.75 21.5834 7.89584 21.9376 8.02084 22.0001C8.10417 22.0417 8.54167 21.9792 9.3125 21.7917C10.7083 21.4584 11.3333 20.8751 11.1458 20.0417ZM12.7917 25.5626C12.6458 24.9584 12.2917 24.6251 11.75 24.5209C11.3958 24.4584 10.8542 24.5209 10.1458 24.7084C9.29167 24.9167 8.8125 25.0626 8.77084 25.1459C8.70834 25.2292 8.77084 25.6459 8.95834 26.3959C9.14584 27.1876 9.29167 27.6042 9.39584 27.6667C9.5 27.7292 10 27.6459 10.875 27.4376C11.6042 27.2709 12.0833 27.0834 12.3542 26.8959C12.7917 26.5834 12.9375 26.1459 12.7917 25.5626Z" fill="#002032"/>
  </g>
  <defs>
    <clipPath id="clip0_15336_41873">
      <path d="M0 12C0 5.37258 5.37258 0 12 0H38C44.6274 0 50 5.37258 50 12V38C50 44.6274 44.6274 50 38 50H12C5.37258 50 0 44.6274 0 38V12Z" fill="white"/>
    </clipPath>
  </defs>
</svg>